<svg width="1920" height="377" fill="none" xmlns="http://www.w3.org/2000/svg"><path fill-rule="evenodd" clip-rule="evenodd" d="M1179.95 3.014c-3.01 1.66-6.68 4.14-8.15 5.512-1.81 1.69-3.71 2.298-5.86 1.885-2.3-.441-3.59.055-4.63 1.777-.79 1.314-4.01 3.712-7.17 5.33-3.15 1.618-6.32 4.04-7.04 5.38-.98 1.85-2.54 2.44-6.44 2.44-3.85 0-5.52.621-6.68 2.484-.86 1.367-2.07 2.162-2.71 1.769-2.02-1.248-9.71.8-9.71 2.584 0 .931-.74 1.693-1.65 1.693-.9 0-3.13 1.38-4.95 3.066-1.81 1.687-3.81 2.752-4.43 2.366-.63-.385-1.14-.189-1.14.437 0 .627-1.77 1.558-3.95 2.07-2.17.513-4.23 1.001-4.56 1.085-.33.085-1.31.598-2.16 1.139-.85.542-3.06.654-4.9.247-2.93-.643-5.22-2.157-12.1-7.994-.85-.722-3.89-1.002-6.92-.638-2.98.359-5.73.123-6.13-.521-.66-1.076-3.28-.24-12.52 4.007-1.52.698-5.9 1.368-9.73 1.488-8.84.278-8.4.13-9.15 2.998-.38 1.48-1.75 2.509-3.48 2.621-5.44.35-10.16-.428-11.09-1.826-.65-.985-1.31-.76-2.2.754-.7 1.186-1.81 1.825-2.46 1.418-.66-.407-1.86-.273-2.67.299-2.6 1.843-10.59.14-10.59-2.26 0-.697-.89-.925-1.98-.507-1.08.42-2.72.142-3.63-.614-.909-.757-2.997-1.038-4.638-.626-2.2.553-3.453.081-4.766-1.797-1.486-2.126-2.205-2.32-4.347-1.17-1.933 1.035-2.487 1.023-2.244-.048.176-.783-.451-1.704-1.393-2.047-1.198-.436-1.481-.012-.936 1.41 1.101 2.874-4.064 4.817-13.772 5.181-15.197.57-25.693 1.643-27.963 2.86-3.705 1.987-6.701 1.427-9.746-1.82-3.042-3.244-6.201-4.3-3.649-1.22 1.261 1.523 1.104 1.829-.938 1.829-1.348 0-2.755.794-3.127 1.766-.484 1.262-2.282 1.67-6.318 1.433-4.699-.278-6.151-.983-8.681-4.223l-3.037-3.889-3.427 3.676c-1.884 2.02-4.243 3.674-5.24 3.674-.999 0-2.13.823-2.516 1.828-.384 1.006-1.861 1.828-3.279 1.828-1.42 0-3.534 1.18-4.7 2.623-1.837 2.273-3.42 2.633-11.902 2.713-6.541.06-10.439-.454-11.761-1.553-1.499-1.247-2.382-1.306-3.653-.25-1.192.991-2.624 1.034-4.949.149-2.582-.985-3.1-1.782-2.463-3.795.647-2.04.36-2.45-1.438-2.06-1.236.27-2.109 1.144-1.942 1.94.168.799-.244 1.452-.913 1.452s-1.216-.485-1.216-1.076c0-1.465-5.976-2.518-6.791-1.198-1.039 1.684-12.964 1.205-16.54-.663-2.823-1.477-3.351-1.464-3.947.093-.949 2.476-5.625 1.562-7.266-1.421a355.426 355.426 0 00-1.613-2.913c-.149-.262-2.552-.606-5.34-.763-3.183-.179-5.48-1.022-6.174-2.265-1.374-2.459-5.456-2.53-11.03-.198-3.887 1.627-4.43 1.592-6.23-.4-1.084-1.201-1.985-2.69-2.002-3.307-.016-.617-1.932-2.07-4.258-3.23-3.593-1.791-4.227-1.836-4.227-.304 0 2.005-1.024 2.263-7.474 1.88-2.439-.144-4.797.328-5.241 1.048-1.465 2.373-5.115 1.369-6.558-1.803-.778-1.714-1.955-2.783-2.614-2.374-.684.422-.887-.071-.473-1.15.9-2.35.631-2.347-5.097.052-4.249 1.778-4.762 1.778-6.06 0-2.073-2.841-4.293-2.407-9.438 1.841l-4.584 3.785-2.222-2.566c-2.608-3.012-4.469-3.26-5.854-.782-.548.983-2.902 1.942-5.23 2.133-3.881.318-4.216.083-4.029-2.821l.204-3.17-4.415 2.256c-2.428 1.24-5.12 2.255-5.981 2.255-.863 0-1.568.96-1.568 2.132-.001 1.712-1.2 2.184-6.082 2.39-3.345.141-6.082-.27-6.082-.914 0-.645-.531-1.171-1.179-1.171-.647 0-.863.822-.478 1.828.455 1.187-.031 1.828-1.384 1.828-1.354 0-1.84-.641-1.385-1.828.836-2.184-.48-2.313-4.562-.45-1.662.76-4.015.96-5.227.449-3.506-1.479-7.681-1.764-7.681-.526 0 2.144-2.269 1.136-3.059-1.36-.448-1.41-.091-3.34.821-4.44 1.424-1.721 1.26-1.836-1.421-.996-1.668.522-3.305 1.349-3.639 1.839-1.554 2.273-6.141 2.455-9.318.37-4.404-2.893-9.135-2.92-11.184-.064-.954 1.33-2.434 1.992-3.52 1.574-1.032-.396-2.89.2-4.132 1.326-2.162 1.961-2.899 1.303-2.439-2.176.181-1.368-3.35-2.206-4.108-.976-1.164 1.887-2.679 1.34-3.344-1.207-.521-1.996-1.647-2.352-7.136-2.254-3.584.064-7.816.594-9.403 1.18-2.519.926-2.803.749-2.243-1.402 1.049-4.017-1.007-2.854-6.737 3.808-4.614 5.367-5.845 6.16-8.512 5.49-2.376-.598-2.965-1.365-2.48-3.227.88-3.37-3.659-3.296-7.064.115-2.883 2.888-8.634 4.895-10.578 3.691-.71-.44-1.194-1.889-1.075-3.22.172-1.923-.407-2.332-2.824-1.995-1.673.233-3.744 1-4.605 1.708-1.974 1.622-15.011-1.236-16.453-3.608-.544-.892-1.501-1.304-2.128-.915-.629.389-1.143.126-1.143-.584 0-2.258-3.645-1.391-6.91 1.64-2.408 2.237-4.551 2.943-9.042 2.978-3.237.024-6.206-.473-6.596-1.107-.446-.72-1.537-.709-2.915.03-1.336.716-3.666.761-5.917.114-2.042-.586-4.016-.761-4.388-.39-.372.372-4.221.875-8.554 1.118-4.333.242-9.307.985-11.051 1.649-4.094 1.56-9.097 1.553-9.097-.01 0-.67-.821-1.219-1.824-1.219-1.004 0-1.825.549-1.825 1.219s-.642 1.219-1.428 1.219c-.786 0-.102-1.46 1.52-3.242 2.613-2.873 2.672-3.134.516-2.3-2.876 1.115-4.548 1.505-10.644 2.483-2.846.457-4.561 1.399-4.561 2.504 0 2.405-2.433 2.188-5.962-.53-2.172-1.675-2.729-2.982-2.175-5.108.472-1.808.023-3.657-1.221-5.035-2.317-2.567-4.023-2.815-4.023-.589 0 1.74-7.386 9.38-9.066 9.38-.574 0-2.949 1.456-5.278 3.235-3.414 2.609-4.655 2.973-6.403 1.879-2.106-1.317-4.743-1.196-9.944.458-1.956.623-2.356.376-1.789-1.105.481-1.259.184-1.697-.876-1.29-.883.34-1.955-.294-2.382-1.41-.561-1.462-1.62-1.814-3.806-1.264-3.257.819-3.928-.336-1.571-2.697 2.469-2.473-.852-1.682-4.281 1.02-2.63 2.073-3.544 2.235-5.539.987-1.906-1.192-2.779-1.171-4.313.105-1.32 1.096-1.923 1.162-1.923.207 0-.858-1.115-1.11-2.909-.66-1.599.403-3.273.14-3.721-.586-.446-.725-.232-1.317.476-1.317s1.288-.553 1.288-1.229c0-.73-1.051-.608-2.592.305-1.743 1.031-2.747 1.112-3.064.244-.506-1.382-16.368-1.356-18.605.03-.706.437-1.284.2-1.284-.525 0-.783-1.171-.55-2.888.577-3.851 2.528-13.535 3.525-19.92 2.05-3.252-.75-5.169-.762-5.169-.032 0 .638-.556.816-1.236.396-.68-.422-.995-1.158-.698-1.638.718-1.166-5.412-.915-8.13.332-1.186.545-4.31.443-6.941-.226-3.438-.874-4.943-.829-5.353.164-.383.929-1.028.783-1.971-.448-1.046-1.365-1.557-1.446-2.013-.32-.337.828-1.573 2.695-2.748 4.149-1.906 2.36-2.568 2.492-6.157 1.238-4.826-1.685-28.108 1.288-32.526 4.153-3.559 2.31-5.992 2.21-6.947-.284-.592-1.549-1.115-1.694-2.198-.609-1.988 1.991-6.428 1.772-8.232-.406-.833-1.005-2.564-1.828-3.847-1.828s-3.816-1.045-5.628-2.324c-4.6-3.242-11.711-4.305-13.928-2.085-.96.963-2.404 1.343-3.208.846-.803-.497-6.678-.779-13.056-.627-8.99.216-11.743-.103-12.248-1.422-.358-.934-1.654-1.7-2.882-1.7-1.227 0-2.569-.548-2.982-1.218-.414-.67-3.101-1.22-5.973-1.22-2.871 0-6.951-.604-9.066-1.342-2.115-.739-4.798-.929-5.96-.423-2.895 1.262-6.413.712-9.942-1.557-3.702-2.38-22.769-3.419-25.227-1.375-1.259 1.048-2.186.9-3.859-.618-3.363-3.05-6.049-2.492-6.492 1.344-.416 3.612-4.642 5.645-4.642 2.233 0-2.389-2.868-2.5-4.785-.186-1.2 1.448-1.97 1.473-4.711.15-10.54-5.092-12.358-5.715-14.602-5.001-1.352.43-2.838.167-3.302-.585-.463-.752-2.065-1.06-3.559-.685-1.987.5-3.105-.045-4.168-2.034-1.125-2.102-2.724-2.8-7.079-3.083-3.093-.201-6.596-.887-7.782-1.523-3.612-1.937-5.883-1.308-6.672 1.846-1.05 4.19-5.271 5.316-7.87 2.098-1.746-2.16-2.365-2.293-4.334-.943-2.54 1.744-10.203 2.122-10.203.504 0-1.305-4.942 1.453-6.931 3.869-.828 1.005-1.524 2.802-1.545 3.99-.022 1.19-1.333 2.656-2.914 3.258-1.582.602-3.206 1.96-3.61 3.017-.406 1.057-1.913 1.922-3.35 1.922-2.014 0-2.466.558-1.976 2.437.394 1.511.036 2.437-.94 2.437-.867 0-1.925 1.867-2.352 4.147-.427 2.282-1.627 4.475-2.667 4.875-2.548.98-2.655.953-3.24-.796-.28-.837-.261.054.042 1.98.382 2.434.121 3.24-.85 2.638-.77-.477-2.128-.262-3.017.478-.89.74-2.57.978-3.737.53-1.715-.66-1.967-.335-1.321 1.705.83 2.62-1.017 4.87-2.297 2.796-.402-.651-1.548-.87-2.548-.487-1.33.512-1.468 1.119-.517 2.267 1.02 1.232.439 1.502-2.707 1.261-2.203-.17-5.09.08-6.418.555-2.302.822-2.285.901.371 1.746 3.815 1.214 2.815 3.143-3.201 6.177-3.933 1.984-4.752 2.89-3.628 4.016 1.124 1.126.605 1.454-2.301 1.454-2.655 0-4.333.886-5.735 3.032-1.09 1.667-4.695 4.271-8.01 5.789-4.102 1.876-6.394 3.795-7.182 6.01-.723 2.032-2.221 3.405-3.991 3.656-2.074.294-2.998 1.383-3.443 4.058-.738 4.438-5.708 10.359-8.696 10.359-1.382 0-1.933.633-1.51 1.734.382 1.001-.431 2.322-1.922 3.121-1.85.992-2.364 2.084-1.81 3.838.755 2.38.665 2.393-3.095.446-2.129-1.104-4.056-1.822-4.28-1.598-.225.226-.748 3.379-1.161 7.007-.582 5.091-1.496 7.235-4.013 9.402-3.189 2.744-3.287 2.753-4.531.423-1.252-2.343-1.298-2.344-2.73-.047-.8 1.285-3.417 3.269-5.815 4.408-2.932 1.396-4.133 2.661-3.669 3.872.574 1.499-.278 1.658-5.105.955-5.355-.78-5.61-.703-3.361 1.009 2.267 1.726 2.306 2.088.566 5.274-1.294 2.37-3.159 3.651-6.082 4.172-2.318.415-3.737.827-3.154.914.584.089.381.984-.453 1.989-.833 1.006-1.133 1.828-.669 1.828.465 0-.258 1.407-1.608 3.125-1.383 1.762-2.125 3.979-1.702 5.085.576 1.501.24 1.766-1.419 1.128-1.617-.622-1.991-.365-1.466 1.008.432 1.127.013 1.841-1.08 1.841-.983 0-1.787.823-1.787 1.828 0 1.119 1.136 1.828 2.927 1.828 2.332 0 2.797.498 2.289 2.444-.669 2.566 1.685 6.477 3.299 5.477.517-.32 1.617.234 2.444 1.233 1.264 1.525 1.015 1.814-1.557 1.814-3.124 0-4.597 1.844-3.647 4.57.291.837 1.596 1.524 2.9 1.524 1.303 0 2.684.822 3.069 1.828.385 1.005 1.463 1.828 2.395 1.828 2.342 0 2.137 3.562-.257 4.482-1.49.573-1.063 1.123 1.812 2.335 2.286.963 3.517 2.222 3.139 3.21-.383 1 1.026 2.375 3.663 3.572 2.357 1.071 4.285 1.454 4.285.853 0-.991 2.754-.679 8.923 1.009 1.647.451 2.044 1.355 1.519 3.454-.523 2.087.07 3.458 2.228 5.161 1.618 1.274 3.124 3.919 3.347 5.877.309 2.718.95 3.466 2.709 3.162 1.266-.22 2.755.329 3.307 1.218.804 1.293 1.485 1.319 3.405.127 1.928-1.197 3.254-1.133 6.728.322 5.27 2.206 6.205 6.644 1.286 6.103-4.322-.475-3.778 1.412.69 2.396 2.053.451 4.007 1.543 4.346 2.424.338.882 1.942 1.938 3.566 2.346 2.688.675 3.44 2.163 3.28 6.484-.03.839 1.019 1.524 2.333 1.524 1.953 0 2.33.724 2.06 3.96-.182 2.179-1.064 4.848-1.96 5.933-1.446 1.749-1.246 1.912 1.758 1.442l3.39-.53-2.873 2.518c-2.812 2.467-2.818 2.52-.304 2.52 1.412 0 2.568.548 2.568 1.218 0 .67 1.095 1.219 2.433 1.219 1.338 0 2.433.548 2.433 1.219 0 .67-1.158 1.218-2.573 1.218-2.455 0-2.483.138-.608 3.004 1.08 1.652 1.964 3.827 1.964 4.832 0 1.006 1.095 2.415 2.433 3.132 1.467.786 2.433 2.552 2.433 4.447 0 2.884.326 3.081 3.953 2.406 6.69-1.244 8.588-1.766 15.51-4.263 3.68-1.327 9.664-2.753 13.299-3.17 5.215-.597 7.58-1.638 11.224-4.935 5.201-4.707 11.92-7.888 16.68-7.895 1.757-.002 5.112-1.186 7.453-2.63 2.342-1.443 9.16-3.618 15.15-4.833 9.277-1.881 11.171-1.959 12.773-.529 2.237 1.997 7.36 2.813 9.457 1.505.822-.513 2.622-.329 4 .409 1.376.739 3.5 1.027 4.719.639 2.722-.866 6.44.424 5.52 1.916-.37.599.683 1.091 2.34 1.091 1.655 0 3.22.627 3.473 1.392.346 1.039 1.147 1.028 3.144-.042 2.174-1.167 2.678-1.112 2.678.292 0 .951 1.166 2.034 2.591 2.408 1.731.454 2.349 1.31 1.862 2.579-.438 1.146-.073 1.901.92 1.901 3.981 0 12.428 5.925 13.049 9.153.278 1.45 1.437 2.425 2.882 2.425 1.329 0 2.83 1.017 3.336 2.26.595 1.46 1.625 1.989 2.913 1.493 1.129-.434 3.062.172 4.456 1.397 2.361 2.073 2.43 2.07 1.663-.034-.441-1.208-.307-1.89.295-1.518.604.375 1.45 2.772 1.881 5.327l.785 4.648 6.315-.186c3.474-.103 6.678.361 7.119 1.028.489.739 1.592.422 2.824-.812 2.544-2.549 3.862-2.557 5.271-.037.691 1.237 3.088 2.139 6.344 2.386 2.876.218 5.621 1.028 6.095 1.798.625 1.014 1.094 1.027 1.696.051.457-.742 2.235-1.349 3.949-1.349 2.79 0 2.943.223 1.449 2.112-1.582 2.002-1.499 2.002 1.634 0 1.816-1.162 4.514-2.112 5.996-2.112 4.152 0 10.772 2.748 10.772 4.472 0 .85.728 1.265 1.617.923.889-.341 2.26.636 3.047 2.172 1.39 2.711 1.412 2.715.754.112-1.081-4.28 2.782-7.17 9.419-7.042 3.098.06 6.447.786 7.443 1.615 1.444 1.199 1.94 1.186 2.443-.068.4-1.002.665-.799.726.558.097 2.165 1.833 2.688 7.507 2.264 2.371-.178 4.408 1.168 8.211 5.424 2.781 3.114 5.057 6.648 5.057 7.855 0 1.328 1.401 2.683 3.552 3.434 1.953.683 4.711 2.402 6.127 3.821 1.416 1.418 3.02 2.302 3.567 1.964.546-.339 2.031.172 3.301 1.135 1.269.962 3.284 1.768 4.479 1.789 2.857.051 8.322 3.677 7.515 4.985-.863 1.398 3.476 3.584 7.115 3.584 1.634 0 3.652.823 4.486 1.829 2.443 2.95 4.722 2.116 5.82-2.133.563-2.179 1.264-3.912 1.556-3.854.292.059 3.405.489 6.917.956 3.511.467 6.386 1.378 6.386 2.025s1.036 1.177 2.303 1.177c1.266 0 2.617.823 3.003 1.829.394 1.029 2.204 1.828 4.144 1.828 1.894 0 4.181.686 5.082 1.523 1.331 1.238 1.452 1.181.643-.305-.722-1.325-.326-1.24 1.437.305 3.089 2.707 3.641 2.676 4.405-.249.369-1.411 2.038-2.661 4.095-3.067 1.911-.377 5.5-1.141 7.977-1.698 2.824-.636 4.966-.549 5.749.234.851.853 1.962.601 3.499-.794 1.24-1.124 2.895-2.043 3.679-2.043.783 0 1.424-.595 1.424-1.32 0-.726.685-1.068 1.521-.761.837.307 3.162-.427 5.169-1.632 2.007-1.204 5.428-2.063 7.603-1.91 2.175.154 3.953-.201 3.953-.787 0-.586 1.031-.739 2.29-.339 1.388.442 2.546.057 2.942-.98.758-1.979 4.248-1.694 11.19.918 6.367 2.393 9.123 2.387 9.123-.022 0-1.241.669-1.701 1.825-1.256 1.003.385 1.824.215 1.824-.378 0-2.076 6.616-3.305 12.143-2.256 4.811.913 5.701.739 7.146-1.401 1.299-1.924 2.143-2.182 3.953-1.212 1.267.68 2.362.804 2.432.278.072-.526.208-2.053.304-3.394.239-3.327 6.822-3.628 9.077-.414.883 1.255 2.09 1.982 2.683 1.614.593-.366 3.858 2.103 7.254 5.487 4.883 4.866 6.615 5.918 8.278 5.026 3.458-1.854 8.82-.156 10.091 3.194.708 1.866 1.797 2.76 2.86 2.352 2.497-.96 10.712 1.572 12.342 3.806 1.249 1.712 1.734 1.646 4.614-.623 3.077-2.424 7.302-2.541 8.721-.24.346.561 1.319.753 2.164.428.844-.324 3.967.269 6.939 1.32 2.973 1.05 5.548 1.477 5.723.948.176-.529 6.479-.785 14.005-.568 7.527.217 14.78.4 16.118.407 4.255.024 12.096-1.031 14.084-1.894 1.055-.459 3.447-.252 5.317.461 2.3.876 3.879.895 4.884.059.816-.678 1.866-.851 2.333-.383.466.468 3.913 1.007 7.661 1.2 3.746.192 7.556.969 8.466 1.726 1.242 1.033 1.655 1.003 1.655-.124 0-.823.804-1.188 1.785-.811.982.378 2.109.162 2.505-.479 1.146-1.856 4.428-1.352 6.099.938.844 1.157 2.821 2.116 4.392 2.133 1.571.016 2.765.578 2.655 1.248-.111.67 1.531 1.287 3.649 1.371 15.126.596 16.586.857 17.293 3.087.394 1.243 1.852 2.245 3.27 2.245 1.408 0 3.51.862 4.673 1.915 1.689 1.534 2.991 1.674 6.495.705 2.41-.667 4.09-.74 3.734-.162-.357.577.322.983 1.507.902 6.145-.426 9.405 1.865 9.091 6.389-.023.335 1.249.686 2.827.781 1.578.094 4.49 1.327 6.472 2.742 3.711 2.647 9.764 3.405 11.804 1.478 1.334-1.26 6.629.44 6.629 2.13 0 1.785 5.292 2.682 6.288 1.066.686-1.113 1.773-1.131 4.559-.078 2.958 1.12 3.94 1.042 5.139-.406.815-.983 2.512-1.52 3.77-1.189 1.326.347 2.574-.145 2.967-1.17.404-1.057 1.559-1.49 2.863-1.075 1.203.382 2.539.124 2.969-.573 1.353-2.192 2.995-1.388 3.811 1.867 1.308 5.222 9.166 6.514 15.268 2.509 1.773-1.165 4.508-2.003 6.077-1.863 5.765.513 8.053-.162 8.679-2.563.518-1.986 1.726-2.464 6.527-2.581 3.241-.081 6.361-.061 6.933.043.573.102 1.804-.449 2.737-1.224 1.275-1.06 2.114-1.064 3.373-.017 1.32 1.097 1.818.847 2.347-1.18.51-1.954 1.278-2.379 3.196-1.769 1.68.535 2.758.194 3.221-1.018.499-1.303 1.965-1.669 5.164-1.29 2.457.29 3.796.207 2.978-.184-2.163-1.033 1.469-6.201 4.978-7.083 1.515-.381 3.436-1.942 4.269-3.468 1.759-3.223 6.736-7.151 9.594-7.571 1.087-.16 2.487-1.82 3.109-3.688 1.508-4.535 5.199-8.081 7.493-7.199 1.347.518 2.067-.341 2.623-3.126.577-2.895 1.802-4.273 4.98-5.603 3.952-1.655 4.346-1.601 6.323.845 1.727 2.136 2.751 2.422 5.658 1.58 1.954-.564 4.372-1.092 5.376-1.172 1.003-.081 2.645-.522 3.649-.981 1.003-.46 6.204.222 11.556 1.513 5.823 1.404 9.9 1.872 10.153 1.164.245-.685 1.214-.526 2.301.377 1.032.859 3.543 1.645 5.579 1.747 2.037.104 4.423 1.174 5.304 2.379 1.715 2.351 1.832 2.11 2.059-4.253.175-4.884 2.494-6.296 3.772-2.296.779 2.44.966 2.512 1.477.57.35-1.326 1.292-1.951 2.336-1.55.974.374 2.892-.644 4.33-2.302l2.583-2.975 3.773 2.635c2.075 1.449 4.194 3.32 4.71 4.156.673 1.091 2.113.34 5.112-2.665 2.596-2.601 4.887-3.911 6.051-3.464 1.031.396 1.596 1.174 1.254 1.728-1.25 2.027 2.068 2.575 4.153.685 1.181-1.071 3.063-1.947 4.181-1.947 1.117 0 2.032-.856 2.032-1.9 0-1.045.548-1.561 1.217-1.147.669.414 1.233 1.955 1.255 3.423.037 2.546.179 2.511 3.063-.775 1.664-1.895 3.696-3.222 4.514-2.948.819.273 2.085-.645 2.814-2.039.728-1.395 1.948-2.404 2.71-2.243.761.161 3.394-1.073 5.848-2.742 4.804-3.266 6.557-3.749 6.557-1.806 0 .728.99.609 2.433-.293 1.338-.837 2.433-2.154 2.433-2.927 0-1.382 2.653-2.884 5.095-2.884.686 0 .921.851.522 1.892-.44 1.15-.22 1.579.561 1.095.705-.437 1.574.315 1.927 1.67.777 2.975 5.32 2.876 8.701-.188 2.96-2.684 4.5-2.563 7.432.59 1.708 1.837 2.907 2.268 4.001 1.441 2.478-1.875 7.855-1.745 9.49.228 1.513 1.826 4.224 2.572 3.235.889-.295-.503-.05-2.206.545-3.784.722-1.917 1.712-2.626 2.985-2.136 1.085.417 3.632-.589 5.921-2.339 3.283-2.508 4.58-2.855 7.093-1.899 1.692.645 3.435 1.754 3.874 2.466 1.584 2.568 3.031 1.216 2.607-2.434-.304-2.614.022-3.553 1.091-3.142.84.322 2.114-.003 2.832-.722.932-.934 1.716-.413 2.726 1.81 1.27 2.804 1.77 2.994 4.96 1.88 2.88-1.003 3.28-1.565 2.12-2.963-.79-.948-1.03-2.123-.54-2.609.48-.486 1.83.289 2.99 1.723 1.59 1.956 2.63 2.318 4.18 1.449 1.14-.637 3.15-.814 4.47-.393 1.7.541 2.41.204 2.41-1.145 0-1.05.89-1.909 1.98-1.909 1.59 0 1.68.345.5 1.774-1.62 1.956-.68 4.485 1.57 4.207 3.11-.385 4.14.245 5.65 3.463.86 1.844 1.78 2.773 2.04 2.065.61-1.673 7.29-1.2 9.55.676.96.801 3.67 1.635 6.01 1.853 2.34.218 4.78.721 5.42 1.12.65.398 1.52.158 1.95-.534.43-.692 1.29-.943 1.91-.557 2.06 1.277 3.81-.729 2.26-2.598-1.15-1.391-.92-1.72 1.23-1.72 1.46 0 2.31.549 1.9 1.219-.41.67-.26 1.218.34 1.218.6 0 1.72 1.372 2.48 3.047.76 1.676 2.22 3.047 3.24 3.047 2.22 0 2.48-3.198.33-4.068-1.22-.491-1.22-.634 0-.711.83-.052 1.52-.882 1.52-1.842 0-1.789 4.11-3.732 5.76-2.726 1.54.936 3.57-2.122 3.35-5.059-.13-1.822.34-2.556 1.39-2.154.87.336 1.84.187 2.16-.33.32-.516 3.98-.899 8.14-.849 6.23.074 7.65-.285 8.11-2.054.63-2.407 4.1-3 3.63-.62-.17.839.61 1.372 1.73 1.186 1.12-.185 2.38.227 2.81.914.42.688 2.14 1.251 3.82 1.251 3.15 0 6.54 2.482 6.54 4.789 0 .717.73 1.305 1.62 1.305 1.01 0 1.62 1.461 1.62 3.892 0 2.141.64 4.107 1.42 4.368.78.261 1.42 1.25 1.42 2.2 0 .95.82 1.727 1.82 1.727 1.01 0 1.83.485 1.83 1.076 0 1.563 4.73 2.563 5.58 1.181.43-.693 1.92-.384 3.65.751 2.44 1.598 2.93 1.631 2.93.197 0-2.223 3.13-3.595 8.65-3.8 3.28-.122 4.35.316 4.25 1.739-.07 1.152 1.07 2.068 2.92 2.323 1.67.232 3.75 1.009 4.62 1.724 1.2.987 1.75.636 2.3-1.448.57-2.179 1.4-2.65 4.02-2.265 2.6.382 3.59-.17 4.7-2.63 3.62-8.002 6.56-11.624 11.43-14.056 4.65-2.324 4.55-2.337 4.55.583 0 1.876.81 2.438 3.52 2.438 2.12 0 3.82-.784 4.27-1.966.6-1.56 1.12-1.665 2.51-.508.96.801 2.79 1.125 4.07.719 1.39-.441 2.96.033 3.9 1.178.88 1.054 3.9 2.97 6.72 4.258 2.83 1.289 5.44 3.141 5.82 4.117.37.976 2.21 1.952 4.09 2.168 2.67.307 3.36.965 3.15 3.018-.27 2.631.74 3.375 7.25 5.333 2.09.63 3.62.524 4.12-.283.5-.809 1.2-.55 1.9.699 1.2 2.149 5.85 2.758 5.85.766 0-.671.55-1.219 1.22-1.219.67 0 1.22 1.097 1.22 2.437 0 3.023 4.26 3.344 5.38.406.61-1.589 1.1-1.711 2.25-.559 1.15 1.153 1.1 1.7-.2 2.51-1.33.822-1.14 1.327.92 2.43 1.43.766 2.59 2.196 2.59 3.177 0 .983.83 1.786 1.83 1.786s1.82-.823 1.82-1.828c0-1.006-.54-1.828-1.21-1.828-.67 0-1.22-.498-1.22-1.104 0-.609 1.1-.818 2.43-.468 1.34.351 2.44.988 2.44 1.417 0 1.354 7.29 4.074 9.08 3.387.94-.362 3.73.329 6.21 1.534 3.93 1.918 4.92 1.984 7.83.529 1.83-.915 4.76-3.093 6.5-4.84 1.86-1.859 3.93-2.879 5.02-2.462 1.67.643 2.58-1.906 1.99-5.61-.08-.503.63-.914 1.58-.914.95 0 1.95-.674 2.22-1.498.37-1.106 1.31-.964 3.62.546 3.44 2.261 5.76 1.455 2.55-.889-1.83-1.348-1.76-1.822.85-5.605 1.56-2.272 2.95-4.284 3.07-4.47.13-.187 1.67.211 3.44.883 2.06.786 3.21.798 3.21.034 0-.653-.79-1.188-1.75-1.188-2.56 0-3.55-2.274-1.88-4.296 1.26-1.511 1.79-1.516 3.9-.035 2.15 1.504 2.73 1.455 4.71-.39 1.24-1.16 2.48-3.451 2.76-5.092.29-1.77 1.17-2.806 2.16-2.548 4.87 1.279 10.55 1.527 11.19.49.43-.693-.51-.944-2.27-.607-2.44.467-3.01.083-3.01-2.026 0-2.166.51-2.476 3.03-1.842 2.15.541 3.25.197 3.78-1.188.41-1.073 1.23-1.648 1.83-1.276.6.37 1.09.019 1.09-.78 0-1.051 2.44-1.281 8.76-.828 8.14.584 8.5.51 5.17-1.062l-3.59-1.689 5.32.52c3.69.361 4.93.132 4.05-.751-1.77-1.774-.42-4.629 2.19-4.629 1.85 0 2.03-.627 1.24-4.167l-.94-4.165 5.69.287c6.74.343 8.38 1.197 9.88 5.138 1.32 3.487 4.34 4.807 13.71 5.978 6.5.814 6.91.711 6.91-1.713 0-3.641 2.26-3.201 3.75.733.92 2.419 1.52 2.876 2.25 1.697.59-.953 1.98-1.299 3.41-.844 3.7 1.175 6.81-.373 5.05-2.507-2.37-2.853-.25-3.266 2.52-.492 2.05 2.059 3.44 2.423 6.82 1.786 3.38-.635 4.11-1.248 3.56-2.99-.9-2.845 1.14-4.096 3.01-1.843 1.13 1.375 2.08 1.458 4.41.391 2.48-1.133 3.26-.971 4.74.982 1.18 1.566 1.77 1.788 1.8.672.03-1.113 1.05-1.472 3.07-1.083 1.73.33 3.63-.134 4.41-1.078 1.06-1.282.92-1.657-.6-1.657-1.09 0-1.98-.479-1.98-1.064 0-.585 2.56-1.116 5.69-1.178 3.12-.064 5.99-.544 6.38-1.069 1.23-1.664 4.96-1.363 4.96.4 0 .942 1.22 1.692 2.74 1.693 2.49.002 2.72-.533 2.53-5.788-.32-8.637 4.16-13.576 8.92-9.83.87.685 1.71.621 2.2-.166.43-.703.12-1.278-.7-1.278s-1.21-.29-.85-.644c1.03-1.03 6.74 1.542 9.44 4.251 3.53 3.537 5.57 3.095 7.84-1.698 2.03-4.291 1.76-4.188 12.01-4.44 1.18-.03 1.86-.532 1.5-1.114-.36-.584-.2-1.346.36-1.693 1.56-.965 5.37 4.111 4.6 6.125-.38.977-.23 1.497.32 1.153 1.64-1.012 13.56 3.267 13.56 4.865 0 .805.87 1.797 1.93 2.204 2.97 1.145 3.37.896 1.72-1.088-1.04-1.262-1.09-1.828-.14-1.828.75 0 1.38-.96 1.4-2.133.03-1.172.84-3.503 1.8-5.179l1.76-3.047.77 2.714c.73 2.605 4.08 3.245 6.14 1.176.46-.463 1.98-.851 3.38-.861 1.39-.01 3.9-.8 5.57-1.755 6.84-3.905 10.94-5.314 13.51-4.64 2.17.567 2.56.303 1.95-1.298-.84-2.192 3.84-8.132 6.41-8.132 1.02 0 1.25-1.026.72-3.144-.67-2.698-.46-3.038 1.54-2.403 1.72.547 2.52.034 3.04-1.967.67-2.564.83-2.598 2.98-.644 3.11 2.814 5.22 2.567 8.6-1.003 1.58-1.664 3.43-3.025 4.13-3.025.69 0 1.88-.854 2.64-1.897 1.18-1.612 3.15-2.43 6.96-2.884.43-.053 1.19-1.602 1.7-3.446l.91-3.351.88 3.047c.82 2.873.93 2.908 1.86.609 1.87-4.609 5.38-4.876 13.07-.993 3.3 1.663 3.35 1.639 1.83-.861-1.37-2.243-1.22-2.856 1.17-4.818 1.5-1.237 2.74-2.847 2.74-3.577 0-.731.54-1.328 1.21-1.328.67 0 1.22.822 1.22 1.828 0 1.005-.55 1.828-1.22 1.828-.67 0-1.19.96-1.17 2.132.03 1.523 1.24.739 4.21-2.736 3.34-3.91 4.45-4.566 5.68-3.335 1.23 1.232 2.29.679 5.39-2.808 3.13-3.524 4.43-4.195 6.93-3.566 1.91.48 3.37 1.914 3.83 3.772 1.13 4.487 10.4 13.408 14.97 14.404 3.17.691 3.82.513 3.28-.907-.77-1.993 2.64-3.833 3.75-2.028 1.35 2.183 2.81 1.172 3.61-2.491 1-4.555 2.48-4.666 4.07-.305.67 1.844 1.26 2.667 1.31 1.828.18-2.789 2.53-1.569 2.53 1.312 0 1.558 1.46 4.163 3.24 5.788 2.45 2.237 3.05 2.437 2.47.822-.42-1.173-.24-2.133.41-2.133.65 0 1.2.686 1.22 1.523.02.839.84 2.591 1.83 3.895 1.39 1.842 2.11 2.046 3.24.914 1.72-1.72 5.03-1.881 7.98-.387 6.16 3.116 11.71 5.088 10.33 3.662-2.07-2.122-1.93-3.929.24-3.097 1.15.441 1.54.093 1.12-.997-.36-.943.71-2.564 2.45-3.708 3.51-2.302 10.64-1.721 17.57 1.434 4.05 1.843 7.14 1.229 3.9-.775-2.7-1.671.72-5.029 4.35-4.28 1.6.328 4.32.894 6.04 1.254 2.73.571 3.04.328 2.35-1.828-.43-1.366-.45-2.485-.05-2.485 1.8 0 8.84 3.507 10.62 5.294 1.09 1.087 4.47 2.185 7.53 2.44 4.76.399 5.66.106 6.35-2.055 1.77-5.607 6.75-7.715 11.89-5.04 2.68 1.394 3.91 1.493 5.2.419.93-.772 2.04-1.052 2.47-.619.44.432 1.81-.141 3.06-1.275 1.93-1.746 2.88-1.839 6.27-.611 5.09 1.843 5.65 1.818 5.65-.253 0-3.945 13.07 2.206 22.4 10.536 1.31 1.172 3.12 2.133 4.03 2.133.91 0 1.49.903 1.29 2.005-.55 3.109 1.96 3.209 3.31.132 1.05-2.409 2.09-2.747 8.47-2.747 5.87 0 7.36-.4 7.68-2.062.32-1.621 1.73-2.052 6.57-2.014 3.39.025 6.56-.582 7.03-1.351.48-.769 1.99-1.483 3.36-1.586 1.49-.112 2.25-.819 1.89-1.756-.33-.863.28-1.906 1.35-2.32 2.6-.999 2.49-2.906-.18-3.002-3.25-.119 3.11-2.512 8.21-3.091 2.34-.266 6.18-.724 8.52-1.018 2.34-.293 5.2-.569 6.35-.611 1.34-.05 1.84-.73 1.39-1.906-.96-2.502.76-2.307 2.67.302 1.45 1.996 1.7 1.957 3.94-.628 1.48-1.711 3.13-2.469 4.36-2 1.08.418 1.97.153 1.97-.591 0-.742.88-1.349 1.95-1.349 1.23 0 1.7-.671 1.26-1.816-.48-1.244.35-2.071 2.61-2.632 1.81-.448 4.21-1.856 5.33-3.128 2.38-2.718 13.35-3.341 16.26-.923 1.28 1.071 1.78 1.097 1.78.092 0-.767 1.51-2.037 3.35-2.823 1.84-.785 4.28-2.211 5.43-3.168 1.14-.957 2.87-1.437 3.83-1.067 1.06.409 1.99-.247 2.36-1.674.34-1.291 1.62-2.709 2.86-3.152 1.23-.442 3.01-1.405 3.95-2.139 2.04-1.592 7.42-1.886 7.42-.404 0 .573.56.69 1.26.258.7-.431.93-1.834.53-3.117-.55-1.743.05-2.636 2.38-3.523 1.72-.655 3.12-1.753 3.12-2.439 0-.687.96-2.257 2.13-3.489 1.17-1.232 2.68-3.156 3.35-4.278.88-1.479 3.51-2.202 9.61-2.638 4.62-.33 9.11-1.194 9.98-1.921.87-.726 2.18-.951 2.91-.5.73.45 1.99.264 2.81-.414.81-.678 3.66-1.411 6.33-1.628 3.83-.313 4.78-.844 4.49-2.528-.19-1.173.25-2.133.99-2.133s1.05.474.69 1.054c-.36.58 2.45 1.42 6.25 1.867 6.5.765 7.11.606 10.43-2.718l3.52-3.53-2.19-4.125c-1.21-2.27-2.07-4.569-1.92-5.113.39-1.4-11-11.809-12.92-11.809-.87 0-1.26-.532-.86-1.183.4-.65-.14-2.86-1.2-4.91-1.06-2.05-1.62-4.222-1.24-4.826.37-.605.14-1.428-.51-1.832-.65-.403-.91-1.428-.59-2.279.35-.919-1.11-2.215-3.59-3.193-2.65-1.038-3.96-2.25-3.56-3.289.74-1.934-1.04-2.184-2.82-.395-1.33 1.33-9.75 2.039-10.87.916-.37-.368-.74-1.965-.82-3.55-.19-3.738-1.9-5.926-4.63-5.926-1.2 0-2.38-.593-2.62-1.32-.5-1.488-20.69-3.464-27.54-2.696-6.26.703-12.37-.63-12.37-2.699 0-.951-.95-2.24-2.13-2.866-3.49-1.866-14.31-2.402-20.38-1.01-4.11.942-7.51.916-12.32-.095-4.48-.941-7.66-1.007-9.77-.204-1.96.747-3.65.764-4.51.047-.76-.63-4.8-1.002-8.98-.825-5.33.224-7.59-.124-7.59-1.162 0-2.289-8.77-3.443-26.86-3.537-12.83-.065-17.44-.54-20.68-2.121-6.32-3.092-17.98-5.323-25.45-4.871-17.29 1.048-26.76.018-26.76-2.908 0-.89-.68-2.013-1.52-2.495-.84-.482-1.11-.426-.62.124.5.55-.11 1.712-1.35 2.582-1.68 1.182-3.37 1.272-6.68.356-3.56-.984-4.43-1.813-4.43-4.214 0-3.323-.77-3.563-5.56-1.738-2.79 1.064-3.56.859-5.11-1.354-1.58-2.267-2.58-2.505-7.66-1.83-4.79.637-6.05.398-7.02-1.33-.96-1.722-1.51-1.828-3.01-.582-1.03.86-2.13 1.039-2.52.411-.38-.613-2.16-.834-3.96-.489-2.45.47-3.1.203-2.62-1.077.52-1.375-1.67-1.763-11.31-2.013-10.23-.265-12.68.068-16.95 2.297-3.99 2.088-5.51 2.34-7.64 1.267-3.03-1.523-10.75-1.907-20.66-1.028-2.54.225-4.9-.048-5.24-.607-.35-.558-2.65-.715-5.12-.349-7.65 1.139-16.04 1.291-16.04.292 0-.524-.82-.953-1.83-.953-1 0-1.82-.549-1.82-1.219s-.76-1.219-1.68-1.219c-.93 0-1.95-1.015-2.28-2.255-.53-2.027-1.31-2.15-7.74-1.218-9.68 1.403-35.14-.643-33.86-2.721.38-.613-2.1-.86-5.67-.562-3.5.291-7.22.08-8.28-.47-1.05-.549-3-.607-4.31-.13-1.56.566-3.18.13-4.66-1.248-3.09-2.882-9.1-3.606-14.24-1.712-5.92 2.183-11.92 3.103-12.38 1.899-.22-.556-1.62-1.393-3.13-1.862-2.02-.629-2.73-.362-2.73 1.014 0 2.515-4.73 5.023-6.36 3.38-.68-.68-1.99-.947-2.92-.592-.92.355-1.67.156-1.67-.441 0-1.685-22.91.543-25.7 2.5-3.49 2.45-9.94.07-8.28-3.053 1.01-1.89.63-2.053-3.42-1.469-2.52.362-6.05 1.699-7.86 2.971-3.8 2.665-7.05 3.014-7.05.756 0-2.536-4.35-5.613-6.23-4.414-2.3 1.454-7.15 1.37-7.15-.122 0-.67-1.07-1.219-2.37-1.219-1.31 0-2.84-.83-3.4-1.844-.86-1.529-2.11-1.637-7.37-.638-3.49.662-7.87 2.34-9.75 3.729-2.72 2.014-4.04 2.285-6.53 1.338-2.14-.818-3.54-.764-4.47.17-.99.996-2.08.69-4.11-1.153-1.51-1.381-3.45-2.254-4.32-1.94-.86.315-3.59-.395-6.08-1.578-2.48-1.182-6.35-2.261-8.6-2.4-2.25-.137-4.47-.857-4.93-1.6-.54-.882-4.27-1.17-10.74-.828-7.59.399-9.78.165-9.34-.998.82-2.125-7.94-6.219-9.64-4.51-.71.706-.88 1.284-.39 1.284s.31 1.097-.41 2.438c-.71 1.34-1.85 2.437-2.51 2.437-.8 0-.79-.814.04-2.357.69-1.297 1.23-2.805 1.2-3.351-.03-.548-1.13 1.062-2.46 3.575-1.32 2.514-3.25 4.57-4.27 4.57-1.03 0-1.53-.548-1.12-1.218.41-.67.2-1.22-.47-1.22-.68 0-2.69 1.92-4.48 4.266-3.71 4.88-5.15 5.2-8.65 1.932-2.93-2.735-5.99-3.375-9.87-2.065-1.6.538-3.44.41-4.29-.298-.82-.683-3.12-1.04-5.11-.796-4.25.524-11.53-1.745-11.53-3.595 0-2.037-7.25-4.713-13.94-5.145-13.29-.86-13.45-.897-13.07-3.134.42-2.509-4.46-3.016-6.77-.703-1.06 1.063-2.19 1.084-4.38.082-1.62-.741-4.1-1.046-5.51-.678-1.4.368-2.55.121-2.55-.55 0-1.975-5.57-2.459-7.98-.692-2.78 2.04-5.97 2.082-8.05.104-.89-.837-5.17-1.685-9.51-1.885-4.35-.199-9.14-1.169-10.64-2.157-1.65-1.081-3.95-1.49-5.78-1.03-2.35.59-3.05.295-3.05-1.276 0-1.42-.67-1.828-2.21-1.338-1.22.386-4.37-.087-7-1.05-2.63-.966-4.35-1.794-3.82-1.842.53-.046-.16-1.286-1.52-2.753-1.36-1.466-2.48-3.306-2.48-4.089 0-1.9-16.7-1.563-20.28.411-1.46.802-3.92 1.426-5.48 1.386-1.55-.042-3.65.048-4.65.197-4.17.62-6.34-.13-5.6-1.94.4-1.005 1.01-2.513 1.35-3.351.79-1.927-5.45-2.445-7.64-.634-1.17.972-1.36.798-.78-.718 1-2.602-.16-2.386-6.79 1.269zM85.263 28.11c-.151 1.457-1.819 1.175-2.342-.396-.268-.804.17-1.243.973-.975.803.268 1.419.885 1.369 1.37zm256.573 3.32c0 .671.58 1.22 1.288 1.22.708 0 .95-.549.536-1.22-.413-.67-.992-1.218-1.288-1.218-.296 0-.536.549-.536 1.219zm1053.414 1.22c0 .67-.54 1.218-1.21 1.218-.67 0-1.22-.548-1.22-1.218 0-.67.55-1.22 1.22-1.22.67 0 1.21.55 1.21 1.22zm4.87.609c0 1.005-.53 1.828-1.18 1.828-.65 0-.86-.823-.48-1.828.39-1.006.92-1.828 1.18-1.828.26 0 .48.822.48 1.828zm-790.064 1.828c-.414.67-1.267 1.218-1.897 1.218-.63 0-1.144-.548-1.144-1.218 0-.67.854-1.219 1.896-1.219 1.042 0 1.558.549 1.145 1.219zM-69.541 95.634c.877.353 1.927.309 2.33-.096.405-.404-.313-.692-1.595-.64-1.417.059-1.706.348-.735.736zm-11.912 25.399c2.35 2.838.674 3.372-1.842.587-1.215-1.344-1.643-2.444-.952-2.444.69 0 1.947.836 2.794 1.857zm2066.393 50.318c.26.796-.39 1.446-1.45 1.446s-1.92-.867-1.92-1.929c0-2.152 2.62-1.778 3.37.483zm-167.59 36.107c0 .296-.55.876-1.22 1.29-.67.415-1.21.172-1.21-.537 0-.709.54-1.291 1.21-1.291.67 0 1.22.242 1.22.538zm-199.89 9.7c-.37.974.05 2.373.94 3.109 1.2 1 1.78.89 2.28-.43.38-.974-.04-2.373-.93-3.109-1.2-.999-1.78-.889-2.29.43zm238.82 10.48c0 .67.54 1.219 1.21 1.219.67 0 1.22-.549 1.22-1.219s-.55-1.219-1.22-1.219c-.67 0-1.21.549-1.21 1.219zM-53.5 250.793a1.22 1.22 0 01-1.217 1.218 1.22 1.22 0 01-1.216-1.218 1.22 1.22 0 011.216-1.219c.67 0 1.217.548 1.217 1.219zm1586.02 4.202c.27 1.389-.17 1.975-1.22 1.625-.9-.299-1.82-1.523-2.05-2.717-.27-1.39.17-1.976 1.21-1.626.9.3 1.83 1.523 2.06 2.718zm-74.01 8.522c0 1.286-2.34 1.827-3.03.701-.42-.682.09-1.239 1.13-1.239 1.04 0 1.9.242 1.9.538zm-3.65 3.728c0 1.05-1.1 1.828-2.58 1.828-2.16 0-2.34-.301-1.07-1.828.83-1.006 1.99-1.828 2.58-1.828.59 0 1.07.822 1.07 1.828zm-86.37 6.093c0 1.006-.49 1.828-1.08 1.828-.6 0-1.41-.822-1.79-1.828-.43-1.114 0-1.828 1.08-1.828.99 0 1.79.823 1.79 1.828zm-245.56 22.871c-1.21 1.195-1.34 1.054-.68-.682.45-1.202 1.13-1.878 1.51-1.503.37.374 0 1.358-.83 2.185zm51.77 3.56c-.39.971-.68.682-.74-.737-.05-1.285.24-2.004.64-1.599.4.404.45 1.456.1 2.336z" fill="#fff"/></svg>