<svg width="20" height="20" fill="none" xmlns="http://www.w3.org/2000/svg"><path d="M10 5.192A4.8 4.8 0 005.193 10 4.8 4.8 0 0010 14.807 4.8 4.8 0 0014.807 10 4.8 4.8 0 0010 5.192zm0 7.932A3.13 3.13 0 016.876 10 3.13 3.13 0 0110 6.875 3.13 3.13 0 0113.124 10 3.13 3.13 0 0110 13.124zm5.004-9.249a1.122 1.122 0 100 2.246 1.12 1.12 0 001.037-1.553 1.122 1.122 0 00-1.037-.693zM19.37 10c0-1.294.012-2.576-.06-3.868-.073-1.5-.415-2.83-1.512-3.928C16.698 1.105 15.37.765 13.87.692c-1.294-.072-2.576-.06-3.868-.06-1.293 0-2.575-.012-3.867.06-1.5.073-2.831.415-3.928 1.512-1.1 1.1-1.439 2.428-1.512 3.928C.623 7.426.635 8.708.635 10c0 1.29-.012 2.575.06 3.867.073 1.5.415 2.831 1.512 3.928 1.1 1.1 2.428 1.439 3.928 1.512 1.294.072 2.576.06 3.867.06 1.294 0 2.576.012 3.867-.06 1.5-.073 2.832-.415 3.929-1.512 1.099-1.1 1.439-2.428 1.511-3.928.075-1.292.061-2.574.061-3.867zm-2.062 5.526A2.977 2.977 0 0116.6 16.6a2.99 2.99 0 01-1.073.708c-1.233.49-4.16.38-5.527.38-1.366 0-4.296.11-5.529-.377a2.98 2.98 0 01-1.073-.708 2.999 2.999 0 01-.708-1.074c-.488-1.235-.378-4.162-.378-5.528 0-1.367-.11-4.297.378-5.53a2.96 2.96 0 01.708-1.073A3.03 3.03 0 014.47 2.69c1.233-.487 4.163-.377 5.529-.377 1.366 0 4.296-.11 5.529.377.427.171.745.378 1.073.708.33.33.537.647.708 1.074.488 1.232.378 4.162.378 5.529 0 1.366.11 4.293-.38 5.526z" fill="#1D201F"/></svg>