<svg width="12" height="12" fill="none" xmlns="http://www.w3.org/2000/svg"><path d="M6 0a6 6 0 11-2.71 11.355l-.09-.049-2.734.683A.374.374 0 010 11.658v-.062l.01-.062.683-2.733-.048-.09a5.962 5.962 0 01-.622-2.165l-.019-.287L0 6a6 6 0 016-6zm.375 6.75h-2.25l-.068.006a.375.375 0 000 .738l.068.006h2.25l.067-.006a.375.375 0 000-.738l-.067-.006zm1.5-2.25h-3.75l-.068.006a.375.375 0 000 .738l.068.006h3.75l.067-.006a.375.375 0 000-.738L7.875 4.5z" fill="#1D201F"/><path d="M7.875 4.5h-3.75l-.068.006a.375.375 0 000 .738l.068.006h3.75l.067-.006a.375.375 0 000-.738L7.875 4.5zm-1.5 2.25h-2.25l-.068.006a.375.375 0 000 .738l.068.006h2.25l.067-.006a.375.375 0 000-.738l-.067-.006z" fill="#1D201F"/></svg>